<?xml version="1.0" encoding="UTF-8" standalone="no"?>
<!DOCTYPE svg PUBLIC "-//W3C//DTD SVG 1.1//EN" "http://www.w3.org/Graphics/SVG/1.1/DTD/svg11.dtd">
<svg width="100%" height="100%" viewBox="0 0 750 750" version="1.1" xmlns="http://www.w3.org/2000/svg" xmlns:xlink="http://www.w3.org/1999/xlink" xml:space="preserve" xmlns:serif="http://www.serif.com/" style="fill-rule:evenodd;clip-rule:evenodd;stroke-linecap:round;stroke-linejoin:round;stroke-miterlimit:1.5;">
    <g transform="matrix(0.695247,0,0,0.695247,-95.007,-154.278)">
        <circle cx="676.029" cy="761.281" r="533.076" style="fill:rgb(14,55,95);"/>
    </g>
    <g transform="matrix(0.28153,0,0,0.29337,107.739,312.307)">
        <path d="M2027.41,814.454C2049.14,794.39 1926.08,779.236 1924.62,780.233L1895.51,770.452C1745.84,746.854 1613.6,734.589 1458.28,725.971C1458.28,725.971 1411.6,677.295 1405.56,677.491C1389.84,678 1229.98,685.918 1084.77,686.023C978.907,686.099 880.628,681.554 852.623,669.266L825.35,655.072C806.471,646.097 816.161,632.356 828.054,618.628C890.569,580.055 963.442,558.158 1026.09,544.762C1069.95,540.35 1098.18,538.068 1133.58,539.154L1142.28,527.662C1133.41,513.515 1129.25,514.416 1112,509.349L1110.74,489.371C1087.51,489.592 1061.7,485.489 1043.07,500.062L733.581,521.025L699.365,499.753C710.69,489.229 711.263,479.791 706.178,470.924L669.17,467.664L687.044,446.282L676.25,433.318L647.519,433.802L634.007,446.975L654.771,468.849L582.347,470.774L578.986,483.706L592.189,491.33C623.072,494.857 639.982,506.132 668.157,533.38C652.579,540.175 652.044,543.902 636.672,553.131C670.553,560.979 703.374,561.343 737.254,561.779C760.968,569.948 765.311,583.398 745.432,603.449C655.751,647.898 563.736,704.607 579.586,726.85C518.34,731.352 465.637,743.292 406.139,758.651C324.348,791.142 262.315,833.504 217.22,876.963C133.057,897.493 49.927,921.324 -30.196,954.771C-31.256,981.65 -20.345,992.47 -0.839,991.758L164.313,993.527L164.822,1015.41C174.291,1037.24 188.478,1045.76 216.878,1045.6L1582.38,1044.38C1803.36,1054.41 1964.81,895.619 2027.41,814.454Z" style="fill:white;"/>
    </g>
    <g transform="matrix(0.312756,0,0,0.325908,41.9208,289.546)">
        <path d="M720.471,728.141C804.791,729.169 894.199,735.111 972.057,747.58C1027.82,755.625 1146.67,765.4 1198.21,762.967" style="fill:none;stroke:black;stroke-width:9.78px;"/>
    </g>
    <g transform="matrix(0.312756,-0.00271443,0,0.325908,41.9208,291.214)">
        <path d="M402.46,858.846C330.158,874.966 252.738,895.43 184.832,924.72C175.937,932.108 181.702,935.749 194.524,937.152L614.735,940.967C626.165,945.047 626.51,957.617 614.744,963.523C614.744,963.523 307.198,960.386 213.391,959.428C197.767,959.269 184.319,948.588 181.209,933.869C180.947,932.63 180.791,931.889 180.791,931.889" style="fill:none;stroke:black;stroke-width:9.83px;"/>
    </g>
    <g transform="matrix(0.343799,-0.00748993,0.00655702,0.537709,14.3603,186.185)">
        <path d="M744.079,514.037C738.901,513.688 734.931,510.902 734.872,507.576C735.01,507.064 735.081,506.553 735.225,506.041C736.019,503.348 739.765,501.444 744.056,501.553C762.323,501.994 819.525,503.446 835.342,503.847C838.61,503.93 841.451,505.338 842.397,507.345C843.119,508.863 843.173,510.467 842.512,512.163C841.663,514.463 838.463,516.081 834.759,516.083C807.57,516.096 771.234,515.755 744.079,514.037Z" style="fill:none;stroke:black;stroke-width:6.95px;"/>
    </g>
    <g transform="matrix(0.363181,0.0457643,0.0439174,0.365766,-20.0275,230.385)">
        <path d="M763.672,525.953C775.648,532.04 794.581,541.516 802.318,552.437" style="fill:none;stroke:black;stroke-width:7.63px;"/>
    </g>
    <g transform="matrix(0.290356,-0.0203285,-0.0195081,0.308203,88.794,311.81)">
        <path d="M769.608,524.058L817.225,553.612" style="fill:none;stroke:black;stroke-width:11.18px;"/>
    </g>
    <g transform="matrix(0.138777,0,0,0.637618,184.116,118.846)">
        <path d="M840.329,509.404C840.329,505.927 827.36,503.105 811.386,503.105L767.078,503.105C751.104,503.105 738.134,505.927 738.134,509.404C738.134,512.881 751.104,515.704 767.078,515.704L811.386,515.704C827.36,515.704 840.329,512.881 840.329,509.404Z" style="fill:none;stroke:black;stroke-width:6.77px;"/>
    </g>
    <g transform="matrix(0.28153,0,0,0.29337,107.739,312.307)">
        <path d="M1011.46,767.635L1035.79,720.194" style="fill:none;stroke:black;stroke-width:10.87px;"/>
    </g>
    <g transform="matrix(0.28153,0,0,0.29337,155.524,308.113)">
        <path d="M998.123,777.458L1035.41,721.422" style="fill:none;stroke:black;stroke-width:10.87px;"/>
    </g>
    <g transform="matrix(0.28153,0,0,0.29337,199.554,307.369)">
        <path d="M998.123,777.458L1037.81,717.825" style="fill:none;stroke:black;stroke-width:10.87px;"/>
    </g>
    <g transform="matrix(0.28153,0,0,0.29337,239.514,307.987)">
        <path d="M996.054,780.567L1036.2,720.237" style="fill:none;stroke:black;stroke-width:10.87px;"/>
    </g>
    <g transform="matrix(0.28153,0,0,0.29337,277.388,308.924)">
        <path d="M996.05,780.572L1040.94,713.115" style="fill:none;stroke:black;stroke-width:10.87px;"/>
    </g>
    <g transform="matrix(0.28153,0,0,0.29337,311.269,310.263)">
        <path d="M998.123,777.458L1040.94,713.115" style="fill:none;stroke:black;stroke-width:10.87px;"/>
    </g>
    <g transform="matrix(0.28153,0,0,0.29337,339.442,310.948)">
        <path d="M998.123,777.458L1040.94,713.115" style="fill:none;stroke:black;stroke-width:10.87px;"/>
    </g>
    <g transform="matrix(0.276425,0.00799478,0.00767214,0.281355,375.051,314.942)">
        <path d="M998.123,777.458L1040.94,713.115" style="fill:none;stroke:black;stroke-width:10.9px;"/>
    </g>
    <g transform="matrix(0.283666,-0.00334378,-0.00320883,0.298395,382.817,314.199)">
        <path d="M998.123,777.458L1040.94,713.115" style="fill:none;stroke:black;stroke-width:10.86px;"/>
    </g>
    <g transform="matrix(0.265612,0.0249271,0.0239211,0.25591,360.126,315.128)">
        <path d="M998.123,777.458L1036.58,719.669" style="fill:none;stroke:black;stroke-width:10.96px;"/>
    </g>
    <g transform="matrix(0.254425,0.0424453,0.0407324,0.229584,349.276,315.727)">
        <path d="M998.123,777.458L1035.62,721.112" style="fill:none;stroke:black;stroke-width:11.01px;"/>
    </g>
    <g transform="matrix(0.232022,0.077528,0.0743993,0.176863,313.88,316.695)">
        <path d="M998.123,777.458L1041.87,711.717" style="fill:none;stroke:black;stroke-width:11.1px;"/>
    </g>
    <g transform="matrix(0.215387,0.103578,0.0993981,0.137716,281.087,317.225)">
        <path d="M998.123,777.458L1051.21,697.681" style="fill:none;stroke:black;stroke-width:11.14px;"/>
    </g>
    <g transform="matrix(0.28153,0,0,0.29337,107.739,312.307)">
        <path d="M1442.2,711.659C1633.59,710.403 1820.18,713.207 2012.77,724.26" style="fill:none;stroke:black;stroke-width:10.87px;"/>
    </g>
    <g transform="matrix(0.28153,0,0,0.29337,107.739,312.307)">
        <path d="M1945.26,780.735C1803.03,749.599 1526.18,727.567 1463.6,724.42C1456.5,724.333 1449.83,721.144 1445.48,715.759C1432.03,702.019 1405.98,680.862 1396.71,675.409" style="fill:none;stroke:black;stroke-width:10.87px;"/>
    </g>
    <g transform="matrix(0.28153,0,0,0.29337,107.739,312.307)">
        <path d="M376.256,775.575C405.179,792.821 432.942,808.78 496.723,812.343C584.699,817.256 914.753,802.711 948.602,786.771C1039.13,771.191 1194.02,763.102 1305.68,762.684L1872.35,776.508C1927.66,776.391 2014.56,787.563 2034.32,808.584" style="fill:none;stroke:black;stroke-width:10.87px;"/>
    </g>
    <g transform="matrix(0.28153,0,0,0.29337,105.687,311.62)">
        <path d="M513.654,811.362C548.254,771.218 699.332,769.634 955.664,788.472" style="fill:none;stroke:black;stroke-width:5.43px;"/>
    </g>
    <g transform="matrix(0.28153,0,0,0.29337,107.739,312.307)">
        <path d="M460.502,979.976C869.245,981.11 1256.08,971.376 1597.32,950.791C1704.99,947.099 1880.65,912.291 1972.99,872.965" style="fill:none;stroke:black;stroke-width:10.87px;"/>
    </g>
    <g transform="matrix(0.28153,0,0,0.29337,107.739,312.307)">
        <path d="M2034.02,809.604C2015.25,823.32 1983.66,821.657 1954.32,822.704L260.82,844.608" style="fill:none;stroke:black;stroke-width:10.87px;"/>
    </g>
    <g transform="matrix(0.28153,0,0,0.29337,107.739,312.307)">
        <path d="M164.313,993.527L164.822,1015.41C174.291,1037.24 188.478,1045.76 216.878,1045.6L1582.38,1044.38C1803.36,1054.41 1964.81,895.619 2027.41,814.454" style="fill:none;stroke:black;stroke-width:10.87px;"/>
    </g>
    <g transform="matrix(0.329995,0,0,0.445821,70.0084,175.906)">
        <path d="M1002.04,882.046C1002.04,874.674 993.956,868.689 983.997,868.689C974.038,868.689 965.952,874.674 965.952,882.046L965.952,921.343C965.952,928.715 974.038,934.7 983.997,934.7C993.956,934.7 1002.04,928.715 1002.04,921.343L1002.04,882.046Z"/>
    </g>
    <g transform="matrix(0.329995,0,0,0.445821,87.1836,175.906)">
        <path d="M1002.04,882.046C1002.04,874.674 993.956,868.689 983.997,868.689C974.038,868.689 965.952,874.674 965.952,882.046L965.952,921.343C965.952,928.715 974.038,934.7 983.997,934.7C993.956,934.7 1002.04,928.715 1002.04,921.343L1002.04,882.046Z"/>
    </g>
    <g transform="matrix(1.53821e-17,0.261773,-0.325685,2.07811e-17,844.57,311.221)">
        <path d="M1002.04,883.193C1002.04,875.188 993.956,868.689 983.997,868.689C974.038,868.689 965.952,875.188 965.952,883.193L965.952,920.196C965.952,928.201 974.038,934.7 983.997,934.7C993.956,934.7 1002.04,928.201 1002.04,920.196L1002.04,883.193Z"/>
    </g>
    <g transform="matrix(1.53821e-17,0.261773,-0.325685,2.07811e-17,870.85,310.768)">
        <path d="M1002.04,883.193C1002.04,875.188 993.956,868.689 983.997,868.689C974.038,868.689 965.952,875.188 965.952,883.193L965.952,920.196C965.952,928.201 974.038,934.7 983.997,934.7C993.956,934.7 1002.04,928.201 1002.04,920.196L1002.04,883.193Z"/>
    </g>
    <g transform="matrix(0.329995,0,0,0.445821,52.8331,175.906)">
        <path d="M1002.04,882.046C1002.04,874.674 993.956,868.689 983.997,868.689C974.038,868.689 965.952,874.674 965.952,882.046L965.952,921.343C965.952,928.715 974.038,934.7 983.997,934.7C993.956,934.7 1002.04,928.715 1002.04,921.343L1002.04,882.046Z"/>
    </g>
    <g transform="matrix(0.28153,0,0,0.29337,107.739,312.307)">
        <path d="M318.13,946.746C318.13,946.746 225.112,947.338 192.098,947.548C185.692,947.588 180.389,942.783 180.063,936.644C180.063,936.643 180.063,936.642 180.063,936.641C179.412,924.364 183.759,912.324 192.186,903.066C251.222,839.163 337.263,780.075 406.586,759.544C460.401,741.017 516.107,734.396 572.156,729.939C572.156,729.939 570.441,729.686 579.78,711.969C589.119,694.252 670.753,636.704 723.913,613.758C777.073,590.812 755.712,572.855 748.918,565.405C742.123,557.955 646.886,559.54 636.157,556.158C625.428,552.776 647.603,543.697 672.769,534.684C697.935,525.671 785.58,520.551 785.58,520.551L1033.24,500.529C1080.01,500.108 1113.25,506.171 1136.45,517.303C1141.57,519.808 1144.23,525.363 1142.86,530.72C1141.5,536.078 1136.48,539.833 1130.73,539.791C1111.27,539.658 1091.06,539.51 1091.06,539.51C1008.54,538.454 866.49,583.041 815.573,630.546C812.957,633.295 811.856,637.073 812.608,640.726C813.359,644.378 815.872,647.472 819.381,649.062C833.769,655.722 853.754,664.777 853.754,664.777" style="fill:none;stroke:black;stroke-width:10.87px;"/>
    </g>
    <g transform="matrix(0.28153,0,0,0.29337,107.739,312.307)">
        <path d="M737.634,607.942C805.187,583.503 888.376,529.974 983.684,504.75" style="fill:none;stroke:black;stroke-width:5.43px;"/>
    </g>
    <g transform="matrix(0.312756,0,0,0.325908,41.9208,289.546)">
        <path d="M361.054,983.677C367.674,988.304 382.562,991.874 401.206,992.019L1788.23,986.127" style="fill:none;stroke:black;stroke-width:9.78px;"/>
    </g>
    <g transform="matrix(0.312756,0,0,0.325908,41.2955,289.989)">
        <path d="M1152.72,514.981C1164.5,508.531 1187.12,507.414 1213.53,508.164L1213.28,521.893" style="fill:none;stroke:black;stroke-width:4.89px;"/>
    </g>
    <g transform="matrix(0.28153,0,0,0.29337,107.739,312.307)">
        <path d="M880.55,753.499C978.916,678.681 1971.2,695.348 2018.63,718.6" style="fill:none;stroke:black;stroke-width:10.87px;"/>
    </g>
    <g transform="matrix(0.735911,0,0,0.762619,95.4683,408.971)">
        <path d="M512.132,135.266C449.878,138.545 319.591,138.062 340.262,124.402C358.925,114.941 388.842,104.645 447.017,101.762C447.185,101.753 447.353,101.753 447.52,101.762L457.836,101.356C457.882,101.333 457.933,101.32 457.987,101.318C459.013,101.286 460.046,101.256 461.087,101.228L464.699,101.085C464.842,101.08 464.982,101.096 465.114,101.132C476.734,100.888 496.719,99.65 510.341,101.216C515.403,101.798 542.312,123.439 555.676,133.957L510.832,135.311"/>
    </g>
    <g transform="matrix(0.753186,0,0,0.753186,-314.889,-709.179)">
        <text x="692.349px" y="1157.08px" style="font-family:'HelveticaNeue-Thin', 'Helvetica Neue', sans-serif;font-weight:200;font-size:208.333px;fill:white;">C<tspan x="847.349px 986.932px " y="1157.08px 1157.08px ">BC</tspan></text>
    </g>
    <g transform="matrix(0.801325,0,0,0.801325,-353.008,-622.635)">
        <text x="553.495px" y="1157.08px" style="font-family:'HelveticaNeue-Bold', 'Helvetica Neue';font-weight:700;font-size:208.333px;fill:white;">Y<tspan x="681.203px 828.078px 986.62px 1145.16px " y="1157.08px 1157.08px 1157.08px 1157.08px ">ACHT</tspan></text>
    </g>
    <g transform="matrix(0.592634,0,0,0.592634,-168.644,-264.281)">
        <text x="325.37px" y="1157.08px" style="font-family:'HelveticaNeue-Bold', 'Helvetica Neue';font-weight:700;font-size:208.333px;fill:white;">C<tspan x="483.911px 642.453px 789.328px 940.161px 1071.62px 1210.79px 1365.37px " y="1157.08px 1157.08px 1157.08px 1157.08px 1157.08px 1157.08px 1157.08px ">HARTERS</tspan></text>
    </g>
</svg>
