<?xml version="1.0" encoding="UTF-8"?>
<svg id="Layer_1" data-name="Layer 1" xmlns="http://www.w3.org/2000/svg" viewBox="0 0 316.79 85.49">
  <defs>
    <style>
      .cls-1 {
        fill: #b5bab6;
      }

      .cls-2 {
        fill: #195090;
      }
    </style>
  </defs>
  <g>
    <path d="M31.56,.6V7.27h-11.61V42.64H11.55V7.27H0V.6H31.56Z"/>
    <path d="M91.35,.6l-10.3,42.04h-10.36l-7.86-30.49-7.92,30.49h-10.3L34.3,.6h9.11l6.43,32.57L58.18,.6h9.23l8.4,32.57L82.24,.6h9.11Z"/>
    <path d="M127.46,2.74c3.19,1.83,5.72,4.38,7.56,7.65,1.85,3.28,2.77,6.98,2.77,11.11s-.92,7.84-2.77,11.14c-1.85,3.3-4.37,5.86-7.56,7.68-3.2,1.83-6.76,2.74-10.69,2.74s-7.49-.91-10.69-2.74c-3.2-1.83-5.72-4.39-7.56-7.68-1.85-3.29-2.77-7.01-2.77-11.14s.92-7.83,2.77-11.11c1.85-3.27,4.37-5.83,7.56-7.65,3.19-1.83,6.76-2.74,10.69-2.74s7.49,.91,10.69,2.74Zm-17.18,6.67c-1.87,1.11-3.33,2.71-4.38,4.79-1.05,2.08-1.58,4.52-1.58,7.29s.53,5.21,1.58,7.29c1.05,2.08,2.51,3.68,4.38,4.79,1.87,1.11,4.03,1.67,6.49,1.67s4.62-.56,6.49-1.67c1.87-1.11,3.32-2.71,4.38-4.79,1.05-2.08,1.58-4.52,1.58-7.29s-.53-5.21-1.58-7.29c-1.05-2.08-2.51-3.68-4.38-4.79-1.87-1.11-4.03-1.67-6.49-1.67s-4.62,.56-6.49,1.67Z"/>
    <path d="M210.5,.66l-10.84,41.98h-5l-10.48-35.97-10.54,35.97h-5L157.8,.66h4.64l8.75,36.8L181.8,.66h4.7l10.6,36.86L205.92,.66h4.58Z"/>
    <path d="M241.29,32.39h-19.12l-3.81,10.24h-4.47L229.38,1.61h4.7l15.48,41.03h-4.53l-3.75-10.24Zm-1.25-3.33l-8.28-22.63-8.4,22.63h16.67Z"/>
    <path d="M256.83,.66l13.52,37.1L283.98,.66h4.58l-15.6,41.98h-5.18L252.24,.66h4.59Z"/>
    <path d="M298.63,4.05v15.84h16.38v3.28h-16.38v16.02h18.16v3.45h-22.39V.66h22.39v3.39h-18.16Z"/>
  </g>
  <g>
    <path d="M217.13,53.11c1.55,1.12,2.61,2.64,3.19,4.57h-2.04c-.5-1.33-1.36-2.4-2.56-3.22-1.21-.82-2.63-1.23-4.27-1.23-1.42,0-2.7,.34-3.85,1.01s-2.05,1.63-2.7,2.89c-.65,1.25-.98,2.71-.98,4.37s.33,3.18,1,4.43c.66,1.25,1.58,2.21,2.75,2.89,1.17,.67,2.5,1.01,3.99,1.01,1.33,0,2.54-.29,3.64-.88,1.1-.59,1.99-1.44,2.68-2.56,.68-1.12,1.08-2.44,1.19-3.95h-8.21v-1.48h9.92v1.74c-.13,1.68-.6,3.19-1.41,4.54s-1.91,2.41-3.28,3.18c-1.37,.78-2.94,1.16-4.69,1.16-1.87,0-3.53-.42-4.99-1.27-1.46-.85-2.59-2.04-3.39-3.57-.8-1.53-1.2-3.27-1.2-5.21s.4-3.68,1.2-5.21c.8-1.53,1.93-2.72,3.38-3.57,1.45-.85,3.11-1.27,4.97-1.27,2.24,0,4.14,.56,5.69,1.68Z"/>
    <path d="M240.08,71.35l-5.41-8.24h-3.19v8.24h-1.99v-19.75h6.05c2.22,0,3.88,.52,4.97,1.57,1.09,1.05,1.64,2.46,1.64,4.23,0,1.64-.46,2.95-1.39,3.92-.92,.97-2.26,1.55-4.02,1.74l5.58,8.29h-2.24Zm-8.6-9.72h3.92c3.17,0,4.76-1.37,4.76-4.12s-1.59-4.2-4.76-4.2h-3.92v8.32Z"/>
    <path d="M264.37,52.66c1.46,.86,2.6,2.06,3.43,3.59,.83,1.53,1.25,3.27,1.25,5.21s-.42,3.68-1.25,5.23c-.83,1.54-1.98,2.74-3.43,3.6-1.46,.86-3.1,1.29-4.93,1.29s-3.47-.43-4.93-1.29c-1.46-.86-2.6-2.06-3.43-3.6-.83-1.54-1.25-3.28-1.25-5.23s.42-3.68,1.25-5.21c.83-1.53,1.98-2.73,3.43-3.59,1.46-.86,3.1-1.29,4.93-1.29s3.47,.43,4.93,1.29Zm-8.81,1.54c-1.15,.67-2.06,1.63-2.72,2.89-.66,1.25-1,2.71-1,4.37s.33,3.12,1,4.37c.66,1.25,1.57,2.21,2.72,2.89,1.15,.67,2.44,1.01,3.88,1.01s2.73-.34,3.88-1.01c1.15-.67,2.05-1.63,2.72-2.89,.66-1.25,1-2.71,1-4.37s-.33-3.12-1-4.37c-.66-1.25-1.57-2.21-2.72-2.89-1.15-.67-2.44-1.01-3.88-1.01s-2.73,.34-3.88,1.01Z"/>
    <path d="M279.52,51.59v11.96c0,2.11,.46,3.66,1.39,4.65s2.19,1.48,3.8,1.48,2.86-.49,3.77-1.48,1.36-2.54,1.36-4.65v-11.96h1.96v11.96c0,2.67-.64,4.67-1.93,6-1.29,1.33-3.02,1.99-5.18,1.99s-3.89-.66-5.18-1.99c-1.29-1.33-1.93-3.32-1.93-6v-11.96h1.96Z"/>
    <path d="M302.97,63.11v8.24h-1.99v-19.75h5.91c2.22,0,3.88,.51,4.97,1.54s1.64,2.44,1.64,4.23-.57,3.25-1.7,4.24c-1.13,1-2.77,1.5-4.92,1.5h-3.92Zm7.42-2.73c.75-.7,1.12-1.7,1.12-3.01s-.37-2.37-1.12-3.07c-.75-.7-1.97-1.05-3.67-1.05h-3.75v8.18h3.75c1.7,0,2.92-.35,3.67-1.05Z"/>
  </g>
  <g>
    <path class="cls-2" d="M202.37,46.02s-.47,.56-1.35,1.67c-.42,.57-1.01,1.21-1.68,1.99-.66,.8-1.5,1.64-2.43,2.61-1.9,1.89-4.35,4.13-7.48,6.4-3.13,2.26-6.93,4.55-11.4,6.59-2.23,1.04-4.64,1.95-7.18,2.84-2.56,.82-5.26,1.62-8.11,2.22-5.68,1.24-11.88,1.95-18.39,2.1-6.51,.14-13.32-.25-20.27-1.08-6.95-.82-14.02-2.02-21.22-3.42-14.39-2.82-27.82-6.27-40.01-9.35-6.07-1.55-11.7-2.9-17.02-3.42-2.65-.29-5.25-.33-7.75-.29-2.5,.11-4.92,.28-7.2,.65-4.58,.68-8.69,1.81-12.19,3.11-3.51,1.3-6.4,2.77-8.71,4.09-1.14,.69-2.16,1.28-2.99,1.88-.84,.58-1.57,1.06-2.11,1.51-1.11,.86-1.67,1.34-1.67,1.34,0,0,.56-.48,1.61-1.42,.51-.48,1.19-1.03,1.98-1.69,.78-.68,1.73-1.39,2.79-2.21,2.16-1.59,4.88-3.47,8.27-5.32,3.39-1.84,7.45-3.64,12.17-5.05,2.35-.74,4.89-1.29,7.56-1.77,2.68-.41,5.5-.74,8.46-.8,5.91-.17,12.12,.62,18.39,1.61,12.53,1.96,26.14,4.65,40.31,7.43,7.09,1.38,14,2.73,20.64,3.84,6.64,1.12,13.03,1.97,19.13,2.4,6.09,.42,11.9,.43,17.3-.06,2.7-.21,5.29-.63,7.78-1.06,2.47-.5,4.85-1.02,7.07-1.7,4.47-1.3,8.4-2.93,11.7-4.67,3.31-1.74,5.98-3.59,8.07-5.22,1.02-.85,1.95-1.58,2.67-2.31,.74-.71,1.38-1.3,1.84-1.83,.95-1.04,1.43-1.6,1.43-1.6Z"/>
    <path class="cls-1" d="M197.53,59.76s-.49,.38-1.38,1.13c-.44,.38-.99,.84-1.64,1.39-.33,.27-.66,.58-1.05,.89-.4,.3-.82,.62-1.27,.96-.9,.68-1.87,1.46-3,2.27-1.16,.79-2.43,1.64-3.79,2.56-1.4,.89-2.97,1.78-4.61,2.77-1.68,.94-3.54,1.86-5.46,2.87-3.99,1.83-8.48,3.81-13.65,5.4-2.55,.88-5.3,1.55-8.13,2.3-1.43,.34-2.9,.62-4.38,.94-.75,.15-1.49,.32-2.25,.45-.77,.12-1.54,.24-2.31,.36-.78,.12-1.56,.24-2.35,.36l-1.19,.18-1.2,.13c-1.32,.13-2.66,.26-4.01,.4-.59,.06-1.19,.1-1.78,.13-1.37,.06-2.76,.13-4.15,.2-.43,.02-.85,.04-1.28,.05h-1.28s-1.64-.02-1.64-.02c-1.7-.01-4.47-.11-6.16-.22h-.03c-.88-.06-1.76-.12-2.65-.18-.89-.05-1.76-.2-2.64-.29-.88-.11-1.77-.22-2.66-.33l-1.33-.17-1.32-.22c-1.76-.29-3.5-.63-5.23-.99-6.92-1.49-13.28-3.42-19.22-5.36-5.95-1.94-11.5-3.89-16.85-5.56-5.34-1.68-10.48-3.09-15.42-4.09-4.95-1-9.66-1.62-14.07-1.75-4.41-.17-8.46,.1-11.98,.56-3.52,.47-6.51,1.17-8.86,1.9-.6,.17-1.14,.36-1.65,.54-.51,.18-1,.34-1.43,.52-.85,.36-1.6,.65-2.16,.93-1.13,.55-1.71,.86-1.71,.86,0,0,.58-.31,1.65-.92,.54-.31,1.24-.64,2.06-1.07,.41-.21,.88-.4,1.36-.63,.49-.23,1.01-.47,1.58-.69,2.26-.95,5.16-1.97,8.71-2.85,3.54-.87,7.73-1.63,12.46-1.97,4.73-.38,10.01-.27,15.49,.29,5.5,.55,11.24,1.58,17.06,2.92,5.83,1.34,11.74,3,17.74,4.69,6,1.69,12.12,3.39,18.43,4.74,1.58,.33,3.15,.65,4.71,.92l1.17,.2,1.17,.16c.78,.11,1.56,.22,2.33,.33,.78,.1,1.54,.25,2.32,.31,.78,.07,1.56,.14,2.33,.22,.78,.07,1.55,.15,2.32,.22,.77,.07-.77-.04,0,0,.77,.04,3.86,.2,4.62,.23l1.15,.06c.38,.01,.76,0,1.15,0,1.53,0,3.04,.01,4.54,.02,1.5-.06,2.99-.12,4.46-.18l1.1-.04,1.09-.09c.73-.06,1.45-.12,2.17-.18,.72-.06,1.44-.12,2.15-.17,.71-.06,1.41-.17,2.11-.26,1.39-.18,2.78-.33,4.14-.53,2.69-.47,5.34-.86,7.83-1.45,5.06-1.02,9.6-2.42,13.75-3.75,2-.75,3.96-1.44,5.75-2.16,1.75-.77,3.45-1.47,4.97-2.18,1.49-.76,2.89-1.46,4.17-2.11,1.25-.68,2.33-1.36,3.33-1.95,.5-.3,.97-.58,1.41-.85,.43-.27,.8-.55,1.16-.8,.71-.5,1.31-.93,1.79-1.28,.96-.7,1.45-1.07,1.45-1.07Z"/>
  </g>
</svg>